<?xml version="1.0" encoding="UTF-8"?>
<svg width="488px" height="521px" viewBox="0 0 488 521" version="1.1" xmlns="http://www.w3.org/2000/svg" xmlns:xlink="http://www.w3.org/1999/xlink">
    <!-- Generator: Sketch 44.1 (41455) - http://www.bohemiancoding.com/sketch -->
    <title>mist</title>
    <desc>Created with Sketch.</desc>
    <defs></defs>
    <g id="Page-1" stroke="none" stroke-width="1" fill="none" fill-rule="evenodd">
        <g id="mist" fill-rule="nonzero">
            <path d="M426.208,165.036 C425.088,165.036 383.56,165.036 383.56,165.036 C384.304,157.036 384.8,151.412 384.816,146.628 C384.944,103.956 356.456,64.204 314.784,55.028 C291.032,49.796 268.36,52.428 249.6,62.556 C226.712,28.492 188.792,4.9 145.328,2.244 C139.736,1.476 134.072,0.716 128.272,0.716 C57.432,0.708 0,59.82 0,132.876 C0,170.948 15.688,205.108 40.648,229.244 C62.72,253.732 93.368,269.516 129.656,272.148 C129.656,272.148 425.088,273.596 426.208,273.596 C455.92,273.596 480,251.308 480,219.316 C480,187.324 455.912,165.036 426.208,165.036 Z" id="Shape" fill="#77B9C8"></path>
            <path d="M392.48,285.036 C391.488,285.036 354.808,285.036 354.808,285.036 C355.464,277.036 355.904,277.06 355.912,272.836 C356.024,235.14 330.864,202.06 294.056,193.948 C273.072,189.324 253.048,192.668 236.472,201.612 C216.256,171.524 182.752,151.188 144.368,148.844 C139.424,148.164 134.424,147.748 129.304,147.748 C66.728,147.74 16,200.084 16,264.62 C16,298.252 29.856,328.484 51.904,349.804 C71.4,371.436 98.472,385.412 130.528,387.74 C130.528,387.74 391.496,389.036 392.488,389.036 C418.728,389.036 440.008,365.3 440.008,337.036 C440,308.772 418.728,285.036 392.48,285.036 Z" id="Shape" fill="#92C7D3"></path>
            <path d="M129.992,448.284 C128.632,448.284 127.256,447.94 126,447.212 C122.168,445.004 120.856,440.108 123.072,436.284 L151.072,387.788 C153.28,383.956 158.184,382.644 162,384.86 C165.832,387.068 167.144,391.964 164.928,395.788 L136.928,444.284 C135.448,446.852 132.76,448.284 129.992,448.284 Z" id="SVGCleanerId_0" fill="#92C7D3" transform="translate(144.000000, 416.033266) rotate(60.000000) translate(-144.000000, -416.033266) "></path>
            <path d="M177.992,544.284 C176.632,544.284 175.256,543.94 174,543.212 C170.168,541.004 168.856,536.108 171.072,532.284 L199.072,483.788 C201.28,479.956 206.184,478.644 210,480.86 C213.832,483.068 215.144,487.964 212.928,491.788 L184.928,540.284 C183.448,542.852 180.76,544.284 177.992,544.284 Z" id="SVGCleanerId_1" fill="#92C7D3" transform="translate(192.000000, 512.033266) rotate(60.000000) translate(-192.000000, -512.033266) "></path>
            <path d="M33.992,448.284 C32.632,448.284 31.256,447.94 30,447.212 C26.168,445.004 24.856,440.108 27.072,436.284 L55.072,387.788 C57.28,383.956 62.176,382.644 66,384.86 C69.832,387.068 71.144,391.964 68.928,395.788 L40.928,444.284 C39.448,446.852 36.76,448.284 33.992,448.284 Z" id="SVGCleanerId_2" fill="#92C7D3" transform="translate(48.000000, 416.033266) rotate(60.000000) translate(-48.000000, -416.033266) "></path>
            <path d="M81.992,544.284 C80.632,544.284 79.256,543.94 78,543.212 C74.168,541.004 72.856,536.108 75.072,532.284 L103.072,483.788 C105.28,479.956 110.184,478.644 114,480.86 C117.832,483.068 119.144,487.964 116.928,491.788 L88.928,540.284 C87.448,542.852 84.76,544.284 81.992,544.284 Z" id="SVGCleanerId_3" fill="#92C7D3" transform="translate(96.000000, 512.033266) rotate(60.000000) translate(-96.000000, -512.033266) "></path>
            <path d="M225.992,448.284 C224.632,448.284 223.256,447.94 222,447.212 C218.168,445.004 216.856,440.108 219.072,436.284 L247.072,387.788 C249.28,383.956 254.184,382.644 258,384.86 C261.832,387.068 263.144,391.964 260.928,395.788 L232.928,444.284 C231.448,446.852 228.76,448.284 225.992,448.284 Z" id="SVGCleanerId_4" fill="#92C7D3" transform="translate(240.000000, 416.033266) rotate(60.000000) translate(-240.000000, -416.033266) "></path>
            <path d="M273.992,544.284 C272.632,544.284 271.256,543.94 270,543.212 C266.168,541.004 264.856,536.108 267.072,532.284 L295.072,483.788 C297.28,479.956 302.176,478.644 306,480.86 C309.832,483.068 311.144,487.964 308.928,491.788 L280.928,540.284 C279.448,542.852 276.76,544.284 273.992,544.284 Z" id="SVGCleanerId_5" fill="#92C7D3" transform="translate(288.000000, 512.033266) rotate(60.000000) translate(-288.000000, -512.033266) "></path>
            <path d="M321.992,448.284 C320.632,448.284 319.256,447.94 318,447.212 C314.168,445.004 312.856,440.108 315.072,436.284 L343.072,387.788 C345.28,383.956 350.184,382.644 354,384.86 C357.832,387.068 359.144,391.964 356.928,395.788 L328.928,444.284 C327.448,446.852 324.76,448.284 321.992,448.284 Z" id="SVGCleanerId_6" fill="#92C7D3" transform="translate(336.000000, 416.033266) rotate(60.000000) translate(-336.000000, -416.033266) "></path>
            <path d="M369.992,544.284 C368.632,544.284 367.256,543.94 366,543.212 C362.168,541.004 360.856,536.108 363.072,532.284 L391.072,483.788 C393.28,479.956 398.176,478.644 402,480.86 C405.832,483.068 407.144,487.964 404.928,491.788 L376.928,540.284 C375.448,542.852 372.76,544.284 369.992,544.284 Z" id="SVGCleanerId_7" fill="#92C7D3" transform="translate(384.000000, 512.033266) rotate(60.000000) translate(-384.000000, -512.033266) "></path>
            <path d="M417.992,448.284 C416.632,448.284 415.256,447.94 414,447.212 C410.168,445.004 408.856,440.108 411.072,436.284 L439.072,387.788 C441.272,383.956 446.184,382.644 450,384.86 C453.832,387.068 455.144,391.964 452.928,395.788 L424.928,444.284 C423.448,446.852 420.76,448.284 417.992,448.284 Z" id="SVGCleanerId_8" fill="#92C7D3" transform="translate(432.000000, 416.033266) rotate(60.000000) translate(-432.000000, -416.033266) "></path>
            <path d="M149.92469,512.433396 C148.56469,512.433396 147.18869,512.089396 145.93269,511.361396 C142.10069,509.153396 140.78869,504.257396 143.00469,500.433396 L171.00469,451.937396 C173.21269,448.105396 178.11669,446.793396 181.93269,449.009396 C185.76469,451.217396 187.07669,456.113396 184.86069,459.937396 L156.86069,508.433396 C155.38069,511.001396 152.69269,512.433396 149.92469,512.433396 Z" id="SVGCleanerId_0_1_" fill="#92C7D3" transform="translate(163.932690, 480.182662) rotate(60.000000) translate(-163.932690, -480.182662) "></path>
            <path d="M197.92469,477.433396 C196.56469,477.433396 195.18869,477.089396 193.93269,476.361396 C190.10069,474.153396 188.78869,469.257396 191.00469,465.433396 L219.00469,416.937396 C221.21269,413.105396 226.11669,411.793396 229.93269,414.009396 C233.76469,416.217396 235.07669,421.113396 232.86069,424.937396 L204.86069,473.433396 C203.38069,476.001396 200.69269,477.433396 197.92469,477.433396 Z" id="SVGCleanerId_1_1_" fill="#92C7D3" transform="translate(211.932690, 445.182662) rotate(60.000000) translate(-211.932690, -445.182662) "></path>
            <path d="M53.9246895,512.433396 C52.5646895,512.433396 51.1886895,512.089396 49.9326895,511.361396 C46.1006895,509.153396 44.7886895,504.257396 47.0046895,500.433396 L75.0046895,451.937396 C77.2126895,448.105396 82.1086895,446.793396 85.9326895,449.009396 C89.7646895,451.217396 91.0766895,456.113396 88.8606895,459.937396 L60.8606895,508.433396 C59.3806895,511.001396 56.6926895,512.433396 53.9246895,512.433396 Z" id="SVGCleanerId_2_1_" fill="#92C7D3" transform="translate(67.932690, 480.182662) rotate(60.000000) translate(-67.932690, -480.182662) "></path>
            <path d="M101.92469,477.433396 C100.56469,477.433396 99.1886895,477.089396 97.9326895,476.361396 C94.1006895,474.153396 92.7886895,469.257396 95.0046895,465.433396 L123.00469,416.937396 C125.21269,413.105396 130.11669,411.793396 133.93269,414.009396 C137.76469,416.217396 139.07669,421.113396 136.86069,424.937396 L108.86069,473.433396 C107.38069,476.001396 104.69269,477.433396 101.92469,477.433396 Z" id="SVGCleanerId_3_1_" fill="#92C7D3" transform="translate(115.932690, 445.182662) rotate(60.000000) translate(-115.932690, -445.182662) "></path>
            <path d="M245.92469,512.433396 C244.56469,512.433396 243.18869,512.089396 241.93269,511.361396 C238.10069,509.153396 236.78869,504.257396 239.00469,500.433396 L267.00469,451.937396 C269.21269,448.105396 274.11669,446.793396 277.93269,449.009396 C281.76469,451.217396 283.07669,456.113396 280.86069,459.937396 L252.86069,508.433396 C251.38069,511.001396 248.69269,512.433396 245.92469,512.433396 Z" id="SVGCleanerId_4_1_" fill="#92C7D3" transform="translate(259.932690, 480.182662) rotate(60.000000) translate(-259.932690, -480.182662) "></path>
            <path d="M293.92469,477.433396 C292.56469,477.433396 291.18869,477.089396 289.93269,476.361396 C286.10069,474.153396 284.78869,469.257396 287.00469,465.433396 L315.00469,416.937396 C317.21269,413.105396 322.10869,411.793396 325.93269,414.009396 C329.76469,416.217396 331.07669,421.113396 328.86069,424.937396 L300.86069,473.433396 C299.38069,476.001396 296.69269,477.433396 293.92469,477.433396 Z" id="SVGCleanerId_5_1_" fill="#92C7D3" transform="translate(307.932690, 445.182662) rotate(60.000000) translate(-307.932690, -445.182662) "></path>
            <path d="M341.92469,512.433396 C340.56469,512.433396 339.18869,512.089396 337.93269,511.361396 C334.10069,509.153396 332.78869,504.257396 335.00469,500.433396 L363.00469,451.937396 C365.21269,448.105396 370.11669,446.793396 373.93269,449.009396 C377.76469,451.217396 379.07669,456.113396 376.86069,459.937396 L348.86069,508.433396 C347.38069,511.001396 344.69269,512.433396 341.92469,512.433396 Z" id="SVGCleanerId_6_1_" fill="#92C7D3" transform="translate(355.932690, 480.182662) rotate(60.000000) translate(-355.932690, -480.182662) "></path>
            <path d="M389.92469,477.433396 C388.56469,477.433396 387.18869,477.089396 385.93269,476.361396 C382.10069,474.153396 380.78869,469.257396 383.00469,465.433396 L411.00469,416.937396 C413.21269,413.105396 418.10869,411.793396 421.93269,414.009396 C425.76469,416.217396 427.07669,421.113396 424.86069,424.937396 L396.86069,473.433396 C395.38069,476.001396 392.69269,477.433396 389.92469,477.433396 Z" id="SVGCleanerId_7_1_" fill="#92C7D3" transform="translate(403.932690, 445.182662) rotate(60.000000) translate(-403.932690, -445.182662) "></path>
            <path d="M437.92469,512.433396 C436.56469,512.433396 435.18869,512.089396 433.93269,511.361396 C430.10069,509.153396 428.78869,504.257396 431.00469,500.433396 L459.00469,451.937396 C461.20469,448.105396 466.11669,446.793396 469.93269,449.009396 C473.76469,451.217396 475.07669,456.113396 472.86069,459.937396 L444.86069,508.433396 C443.38069,511.001396 440.69269,512.433396 437.92469,512.433396 Z" id="SVGCleanerId_8_1_" fill="#92C7D3" transform="translate(451.932690, 480.182662) rotate(60.000000) translate(-451.932690, -480.182662) "></path>
        </g>
    </g>
</svg>